<svg xmlns="http://www.w3.org/2000/svg" viewBox="0 0 680 680" width="512" height="512">
  <!-- BG -->
  <rect x="90" y="90" width="500" height="500" rx="110" fill="#1a1714"/>
  <!-- Trilha superior -->
  <rect x="90" y="145" width="500" height="58" fill="#111"/>
  <rect x="118" y="157" width="36" height="34" rx="5" fill="#1a1714"/>
  <rect x="182" y="157" width="36" height="34" rx="5" fill="#1a1714"/>
  <rect x="246" y="157" width="36" height="34" rx="5" fill="#1a1714"/>
  <rect x="310" y="157" width="36" height="34" rx="5" fill="#1a1714"/>
  <rect x="374" y="157" width="36" height="34" rx="5" fill="#1a1714"/>
  <rect x="438" y="157" width="36" height="34" rx="5" fill="#1a1714"/>
  <rect x="502" y="157" width="36" height="34" rx="5" fill="#1a1714"/>
  <!-- Trilha inferior -->
  <rect x="90" y="477" width="500" height="58" fill="#111"/>
  <rect x="118" y="489" width="36" height="34" rx="5" fill="#1a1714"/>
  <rect x="182" y="489" width="36" height="34" rx="5" fill="#1a1714"/>
  <rect x="246" y="489" width="36" height="34" rx="5" fill="#1a1714"/>
  <rect x="310" y="489" width="36" height="34" rx="5" fill="#1a1714"/>
  <rect x="374" y="489" width="36" height="34" rx="5" fill="#1a1714"/>
  <rect x="438" y="489" width="36" height="34" rx="5" fill="#1a1714"/>
  <rect x="502" y="489" width="36" height="34" rx="5" fill="#1a1714"/>
  <!-- Área central -->
  <rect x="90" y="203" width="500" height="274" fill="#0d0b09"/>
  <rect x="90" y="203" width="500" height="90"  fill="#1c1008"/>
  <rect x="90" y="220" width="500" height="60"  fill="#241508"/>
  <rect x="90" y="240" width="500" height="40"  fill="#2e1b08"/>
  <!-- Sol -->
  <circle cx="340" cy="248" r="52" fill="#C8860A" opacity="0.18"/>
  <circle cx="340" cy="248" r="36" fill="#C8860A" opacity="0.28"/>
  <circle cx="340" cy="248" r="20" fill="#F0A500" opacity="0.85"/>
  <!-- Raios -->
  <line x1="340" y1="203" x2="340" y2="215" stroke="#F0A500" stroke-width="2" opacity="0.5"/>
  <line x1="380" y1="210" x2="372" y2="222" stroke="#F0A500" stroke-width="2" opacity="0.5"/>
  <line x1="410" y1="233" x2="397" y2="238" stroke="#F0A500" stroke-width="2" opacity="0.5"/>
  <line x1="300" y1="210" x2="308" y2="222" stroke="#F0A500" stroke-width="2" opacity="0.5"/>
  <line x1="270" y1="233" x2="283" y2="238" stroke="#F0A500" stroke-width="2" opacity="0.5"/>
  <!-- Terra -->
  <rect x="90" y="293" width="500" height="184" fill="#120e08"/>
  <!-- Câmera -->
  <rect x="240" y="310" width="200" height="130" rx="10" fill="#2a2218"/>
  <rect x="245" y="315" width="190" height="120" rx="8" fill="#221c12"/>
  <rect x="270" y="295" width="140" height="32" rx="5" fill="#2a2218"/>
  <circle cx="340" cy="370" r="44" fill="#181410"/>
  <circle cx="340" cy="370" r="38" fill="#0e0c08"/>
  <circle cx="340" cy="370" r="30" fill="#1a1612"/>
  <circle cx="340" cy="370" r="22" fill="#0a0806"/>
  <circle cx="328" cy="358" r="7"  fill="#2a2218" opacity="0.6"/>
  <circle cx="326" cy="354" r="5"  fill="#F0A500" opacity="0.25"/>
  <circle cx="326" cy="354" r="2"  fill="#fff"    opacity="0.4"/>
  <circle cx="392" cy="302" r="8"  fill="#3a3020"/>
  <circle cx="392" cy="302" r="5"  fill="#C8860A"/>
  <rect x="272" y="300" width="28" height="18" rx="3" fill="#141008"/>
  <rect x="305" y="292" width="50" height="6" rx="2" fill="#3a3020"/>
  <!-- Grão -->
  <circle cx="130" cy="330" r="2"   fill="#F0A500" opacity="0.5"/>
  <circle cx="155" cy="360" r="1.5" fill="#C8860A" opacity="0.4"/>
  <circle cx="145" cy="400" r="2.5" fill="#F0A500" opacity="0.3"/>
  <circle cx="510" cy="320" r="2"   fill="#F0A500" opacity="0.45"/>
  <circle cx="535" cy="355" r="1.5" fill="#C8860A" opacity="0.4"/>
  <circle cx="520" cy="410" r="2.5" fill="#F0A500" opacity="0.3"/>
  <!-- Nome -->
  <text x="340" y="510" font-family="'Bebas Neue', Georgia, serif" font-size="62" fill="#F0A500" text-anchor="middle" letter-spacing="18">GRÃO</text>
  <line x1="260" y1="522" x2="420" y2="522" stroke="#F0A500" stroke-width="1" opacity="0.35"/>
</svg>
